<?xml version="1.0" encoding="UTF-8" standalone="no"?>
<!-- Generator: Adobe Illustrator 17.0.1, SVG Export Plug-In . SVG Version: 6.00 Build 0)  -->

<svg
   xmlns:dc="http://purl.org/dc/elements/1.1/"
   xmlns:cc="http://creativecommons.org/ns#"
   xmlns:rdf="http://www.w3.org/1999/02/22-rdf-syntax-ns#"
   xmlns:svg="http://www.w3.org/2000/svg"
   xmlns="http://www.w3.org/2000/svg"
   xmlns:xlink="http://www.w3.org/1999/xlink"
   xmlns:sodipodi="http://sodipodi.sourceforge.net/DTD/sodipodi-0.dtd"
   xmlns:inkscape="http://www.inkscape.org/namespaces/inkscape"
   version="1.1"
   x="0px"
   y="0px"
   width="86px"
   height="86px"
   viewBox="0 0 86 86"
   enable-background="new 0 0 86 86"
   xml:space="preserve"
   id="svg2"
   inkscape:version="0.48.4 r9939"
   inkscape:export-xdpi="90"
   inkscape:export-ydpi="90"
   sodipodi:docname="helsinki-transit-live.svg"><metadata
     id="metadata29"><rdf:RDF><cc:Work
         rdf:about=""><dc:format>image/svg+xml</dc:format><dc:type
           rdf:resource="http://purl.org/dc/dcmitype/StillImage" /><dc:title /></cc:Work></rdf:RDF></metadata><defs
     id="defs27"><linearGradient
       y2="85.2833"
       x2="85.2829"
       y1="12.8066"
       x1="12.8062"
       gradientUnits="userSpaceOnUse"
       id="SVGID_1_"><stop
         id="stop7"
         style="stop-color:#169660;stop-opacity:1;"
         offset="0.0049" /><stop
         id="stop9"
         style="stop-color:#47c992;stop-opacity:1;"
         offset="1" /></linearGradient><linearGradient
       inkscape:collect="always"
       xlink:href="#SVGID_1_"
       id="linearGradient10171"
       gradientUnits="userSpaceOnUse"
       x1="12.8062"
       y1="12.8066"
       x2="85.282898"
       y2="85.283302"
       gradientTransform="matrix(0,-1,1,0,0,86)" /><linearGradient
       spreadMethod="pad"
       gradientUnits="userSpaceOnUse"
       y2="29.143038"
       x2="25.399216"
       y1="29.143038"
       x1="-29.593582"
       id="linearGradient10935"
       xlink:href="#linearGradient10925"
       inkscape:collect="always" /><linearGradient
       id="linearGradient10925"><stop
         id="stop10927"
         offset="0"
         style="stop-color:#ffffff;stop-opacity:0.39215687;" /><stop
         id="stop10929"
         offset="1"
         style="stop-color:#ffffff;stop-opacity:0;" /></linearGradient></defs><sodipodi:namedview
     pagecolor="#ffffff"
     bordercolor="#666666"
     borderopacity="1"
     objecttolerance="10"
     gridtolerance="10"
     guidetolerance="10"
     inkscape:pageopacity="0"
     inkscape:pageshadow="2"
     inkscape:window-width="1920"
     inkscape:window-height="1143"
     id="namedview25"
     showgrid="true"
     inkscape:zoom="10.732558"
     inkscape:cx="30.421452"
     inkscape:cy="43"
     inkscape:window-x="0"
     inkscape:window-y="27"
     inkscape:window-maximized="1"
     inkscape:current-layer="svg2"
     showguides="true"
     inkscape:snap-global="false"><inkscape:grid
       type="xygrid"
       id="grid10926"
       empspacing="5"
       visible="true"
       enabled="true"
       snapvisiblegridlinesonly="true" /></sodipodi:namedview><g
     id="Layer_2"
     display="none" /><path
     inkscape:connector-curvature="0"
     style="fill:url(#linearGradient10171);fill-opacity:1.0"
     id="path11"
     d="M 43,0.301 C 19.418,0.301 0.3,19.418 0.3,43.001 0.3,66.583 19.418,85.7 43,85.7 66.583,85.7 85.7,66.583 85.7,43 c 0,-0.636 0,-41.277 0,-41.277 C 85.7,0.937 85.063,0.3 84.277,0.3 84.277,0.3 43.636,0.301 43,0.301 z" /><path
     style="fill:#ffffff;fill-opacity:1"
     d="m 28.834307,69.076779 3.287869,0 0.02882,-2.17886 2.934237,0.02847 0,2.150393 15.743045,0 0,-2.093458 2.905419,0.02847 0.05764,2.064991 3.303582,0.02847 0.041,3.050997 -28.33031,-0.02055 z m -0.363567,-5.861912 -0.65913,-19.634671 0.6695,-20.73648 1.531197,-1.375878 10.992533,0.04862 0,-4.566285 -4.889183,-0.0091 -0.02882,-3.097325 13.66272,0.05693 0.0319,3.049526 -4.969117,-0.0368 0.01194,4.651686 11.005521,-0.01182 1.545328,1.218328 0.813261,20.837096 -0.774419,19.634671 -1.513029,1.3126 -25.830693,-0.02847 z m 7.162089,-8.228487 -3.914144,0 0,2.5775 3.914144,0 z m 18.360257,0 -3.914146,0 0,2.5775 3.914146,0 z m 0.432311,-17.557858 0.04323,-7.68069 -0.533184,-0.620833 -22.072653,-0.02847 -0.547594,0.720469 -1e-6,15.096384 0.576415,0.587043 21.97381,0.02847 0.559976,-0.59781 z"
     id="path10162"
     inkscape:connector-curvature="0"
     sodipodi:nodetypes="cccccccccccccccccccccccccccccccccccccccccccccccccccc" /></svg>